<?xml version="1.0" encoding="UTF-8"?>
<!-- GeoWars icon sprite. Usage: <svg aria-hidden="true"><use href="assets/geowars-icons.svg#icon-next"/></svg> -->
<svg xmlns="http://www.w3.org/2000/svg" viewBox="0 0 24 24" fill="none" stroke="currentColor" stroke-width="1.8" stroke-linecap="round" stroke-linejoin="round">
  <symbol id="icon-geowars-mark" viewBox="0 0 24 24"><circle cx="12" cy="12" r="9"/><ellipse cx="12" cy="12" rx="4" ry="9"/><path d="M3 12h18M12 3v18"/><path d="m15.5 8.5 3-3M15.5 5.5h3v3"/></symbol>
  <symbol id="icon-mode-sprint" viewBox="0 0 24 24"><circle cx="12" cy="12" r="8"/><path d="M12 7v5l3 2M4 4l2 2M20 4l-2 2"/></symbol>
  <symbol id="icon-mode-practice" viewBox="0 0 24 24"><path d="M5 3h11a3 3 0 0 1 3 3v15H8a3 3 0 0 0-3 0V3Z"/><path d="M8 7h7M8 11h7M8 15h4"/></symbol>
  <symbol id="icon-timer" viewBox="0 0 24 24"><circle cx="12" cy="13" r="7"/><path d="M9 2h6M12 6v2M12 13l3 2"/></symbol>
  <symbol id="icon-score" viewBox="0 0 24 24"><path d="m12 3 2.65 5.37 5.93.86-4.29 4.18 1.01 5.9L12 16.52l-5.3 2.79 1.02-5.9-4.3-4.18 5.94-.86L12 3Z"/></symbol>
  <symbol id="icon-streak" viewBox="0 0 24 24"><path d="m13 2-8 12h6l-1 8 9-13h-6V2Z"/></symbol>
  <symbol id="icon-flag" viewBox="0 0 24 24"><path d="M5 21V4m0 1c4-3 7 3 14 0v10c-7 3-10-3-14 0"/></symbol>
  <symbol id="icon-region" viewBox="0 0 24 24"><path d="M20 10c0 5-8 11-8 11S4 15 4 10a8 8 0 1 1 16 0Z"/><circle cx="12" cy="10" r="2.5"/></symbol>
  <symbol id="icon-sound" viewBox="0 0 24 24"><path d="M4 10v4h4l5 4V6L8 10H4Z"/><path d="M16 9.5a4 4 0 0 1 0 5M18.5 7a7 7 0 0 1 0 10"/></symbol>
  <symbol id="icon-sound-muted" viewBox="0 0 24 24"><path d="M4 10v4h4l5 4V6L8 10H4Z"/><path d="m17 10 4 4m0-4-4 4"/></symbol>
  <symbol id="icon-quit" viewBox="0 0 24 24"><path d="M10 4H5v16h5M13 8l4 4-4 4M8 12h9"/></symbol>
  <symbol id="icon-next" viewBox="0 0 24 24"><path d="M5 12h13M14 6l6 6-6 6"/></symbol>
  <symbol id="icon-retry" viewBox="0 0 24 24"><path d="M20 11a8 8 0 1 0 1 4"/><path d="M20 4v7h-7"/></symbol>
</svg>
